<?xml version="1.0" encoding="utf-8"?>
<!-- Generator: Adobe Illustrator 26.0.3, SVG Export Plug-In . SVG Version: 6.00 Build 0)  -->
<svg version="1.1" id="Layer_1" xmlns="http://www.w3.org/2000/svg" xmlns:xlink="http://www.w3.org/1999/xlink" x="0px" y="0px"
	 viewBox="0 0 512 512" style="enable-background:new 0 0 512 512;" xml:space="preserve">
<style type="text/css">
	.st0{fill:#FFFFFF;}
</style>
<path class="st0" d="M470,124.8l-98.4-81.8L343.7,76l98.4,81.8L470,124.8z M167.2,74.9L139.4,42L42,124.8l27.8,32.9L167.2,74.9
	L167.2,74.9z M266.7,172.6h-32.1v127.4l101.6,60.5l16.1-26.6l-85.6-49.9L266.7,172.6L266.7,172.6z M256,87.7
	c-107,0-192.6,86-192.6,191.2C63.4,384,149,470,256,470c105.9,0,192.6-86,192.6-191.2C448.6,173.7,361.9,87.7,256,87.7z M256,427.5
	c-82.4,0-149.8-66.9-149.8-148.7c0-81.8,67.4-148.7,149.8-148.7c82.4,0,149.8,66.9,149.8,148.7C405.8,361.7,338.4,427.5,256,427.5
	L256,427.5z"/>
</svg>
