<?xml version="1.0" encoding="utf-8"?>
<!-- Generator: Adobe Illustrator 26.0.3, SVG Export Plug-In . SVG Version: 6.00 Build 0)  -->
<svg version="1.1" id="Capa_1" xmlns="http://www.w3.org/2000/svg" xmlns:xlink="http://www.w3.org/1999/xlink" x="0px" y="0px"
	 viewBox="0 0 512 512" style="enable-background:new 0 0 512 512;" xml:space="preserve">
<style type="text/css">
	.st0{fill:#9A9A9D;}
</style>
<g>
	<g>
		<path class="st0" d="M432.7,317.2l-82.9-97.5l73.6-42c7.2-4.1,9.7-13.3,5.6-20.5c-4.1-7.2-13.3-9.7-20.5-5.6
			c-6.2,3.5-145.7,83.1-152.6,87c-6.9-3.9-146.5-83.6-152.6-87c-7.2-4.1-16.4-1.6-20.5,5.6c-4.1,7.2-1.6,16.4,5.6,20.5l73.6,42
			l-82.9,97.5c-5.4,6.3-4.6,15.8,1.7,21.1c6.3,5.4,15.8,4.6,21.1-1.7l86.6-101.8l59.8,34.1c4.6,2.6,10.3,2.6,14.9,0l59.8-34.1
			l86.6,101.8c5.4,6.3,14.8,7.1,21.1,1.7C437.3,333,438.1,323.6,432.7,317.2z"/>
	</g>
</g>
<g>
	<g>
		<path class="st0" d="M467,81H45c-24.8,0-45,20.2-45,45v260c0,24.8,20.2,45,45,45h422c24.8,0,45-20.2,45-45V126
			C512,101.2,491.8,81,467,81z M482,386c0,8.3-6.7,15-15,15H45c-8.3,0-15-6.7-15-15V126c0-8.3,6.7-15,15-15h422c8.3,0,15,6.7,15,15
			V386z"/>
	</g>
</g>
</svg>
