<?xml version="1.0" encoding="utf-8"?>
<!-- Generator: Adobe Illustrator 26.0.3, SVG Export Plug-In . SVG Version: 6.00 Build 0)  -->
<svg version="1.1" id="Layer_1" xmlns="http://www.w3.org/2000/svg" xmlns:xlink="http://www.w3.org/1999/xlink" x="0px" y="0px"
	 viewBox="0 0 512 512" style="enable-background:new 0 0 512 512;" xml:space="preserve">
<style type="text/css">
	.st0{fill:#9A9A9D;}
</style>
<path class="st0" d="M257,120.5c7.1,0,23.9,4.5,23.9,4.5c45.6,10.4,77.7,52.4,77.7,99.8v127.6l9.3,9.4l7.8,7.8H136.3l7.8-7.8
	l9.3-9.4V224.8c0-47.4,32.1-89.4,77.7-99.8c0,0,18-4.5,23.9-4.5 M256,48c-17.6,0-31.1,13.5-31.1,31.2v14.6
	c-59,13.5-103.5,67.6-103.5,131v114.4L80,380.8v20.8h352v-20.8l-41.4-41.6V224.8c0-63.4-44.5-117.5-103.5-131V79.2
	C287.1,61.5,273.6,48,256,48L256,48z M297.4,422.4h-82.8c0,22.9,18.6,41.6,41.4,41.6S297.4,445.3,297.4,422.4z"/>
</svg>
