<?xml version="1.0" encoding="utf-8"?>
<!-- Generator: Adobe Illustrator 26.0.3, SVG Export Plug-In . SVG Version: 6.00 Build 0)  -->
<svg version="1.1" id="Layer_1" xmlns="http://www.w3.org/2000/svg" xmlns:xlink="http://www.w3.org/1999/xlink" x="0px" y="0px"
	 viewBox="0 0 512 512" style="enable-background:new 0 0 512 512;" xml:space="preserve">
<style type="text/css">
	.st0{fill:#9A9A9D;}
</style>
<path class="st0" d="M259.7,295.6c5-5.1,13.3-5.1,18.4-0.1l60.9,60.7V124.9c0-7.1,5.8-12.9,13-12.9c7.2,0,13,5.8,13,12.9v231.3
	l60.9-60.8c5.1-5,13.3-4.9,18.4,0.1c5,5.1,5,13.2-0.1,18.3l-83,82.4c-1.2,1.1-2.5,2-4.1,2.7c-1.6,0.7-3.3,1-5,1
	c-3.4,0-6.6-1.3-9.1-3.7l-83-82.4C254.8,309,254.7,300.8,259.7,295.6L259.7,295.6z"/>
<path class="st0" d="M247.3,216.3c-5,5.1-13.3,5.1-18.4,0.1L168,155.8v231.3c0,7.1-5.8,12.9-13,12.9s-13-5.8-13-12.9V155.8
	l-60.9,60.8c-5.1,5-13.3,4.9-18.4-0.1c-5-5.1-5-13.2,0.1-18.3l83-82.4c1.2-1.1,2.5-2,4.1-2.7s3.3-1,5-1c3.4,0,6.6,1.3,9.1,3.7
	l83,82.4C252.2,203,252.3,211.2,247.3,216.3L247.3,216.3z"/>
</svg>
