<?xml version="1.0" encoding="UTF-8"?>
<svg xmlns="http://www.w3.org/2000/svg" xmlns:xlink="http://www.w3.org/1999/xlink" width="580pt" height="580pt" viewBox="0 0 580 580" version="1.1">
<g id="surface1">
<path style=" stroke:none;fill-rule:nonzero;fill:rgb(48.599243%,31.799316%,61.599731%);fill-opacity:1;" d="M 72.5 0 L 507.5 0 C 547.539063 0 580 32.460938 580 72.5 L 580 507.5 C 580 547.539063 547.539063 580 507.5 580 L 72.5 580 C 32.460938 580 0 547.539063 0 507.5 L 0 72.5 C 0 32.460938 32.460938 0 72.5 0 "/>
<path style=" stroke:none;fill-rule:nonzero;fill:rgb(100%,100%,100%);fill-opacity:1;" d="M 477.949219 391.339844 C 464.132813 380.214844 449.363281 370.230469 434.832031 360.027344 C 405.839844 339.671875 379.328125 338.089844 357.695313 370.847656 C 345.550781 389.234375 328.542969 390.039063 310.765625 381.972656 C 261.746094 359.746094 223.898438 325.5 201.726563 275.679688 C 191.917969 253.636719 192.046875 233.875 214.996094 218.285156 C 227.144531 210.039063 239.382813 200.285156 238.40625 182.269531 C 237.125 158.78125 180.09375 80.277344 157.570313 71.992188 C 148.25 68.566406 138.96875 68.785156 129.488281 71.976563 C 76.675781 89.734375 54.800781 133.167969 75.75 184.597656 C 138.246094 338.027344 248.234375 444.839844 399.632813 510.03125 C 408.265625 513.746094 417.855469 515.230469 422.710938 516.5625 C 457.179688 516.90625 497.558594 483.699219 509.222656 450.742188 C 520.449219 419.03125 496.71875 406.445313 477.949219 391.339844 "/>
<path style=" stroke:none;fill-rule:nonzero;fill:rgb(100%,100%,100%);fill-opacity:1;" d="M 308.191406 87.722656 C 418.878906 104.746094 469.925781 157.375 484.015625 268.855469 C 485.324219 279.152344 481.488281 294.648438 496.179688 294.933594 C 511.53125 295.226563 507.835938 279.960938 507.964844 269.652344 C 509.261719 164.660156 417.714844 67.328125 311.394531 63.738281 C 303.371094 64.890625 286.773438 58.207031 285.738281 76.183594 C 285.050781 88.308594 299.023438 86.3125 308.191406 87.722656 "/>
<path style=" stroke:none;fill-rule:nonzero;fill:rgb(100%,100%,100%);fill-opacity:1;" d="M 329.84375 118.289063 C 319.195313 117.011719 305.144531 111.992188 302.65625 126.765625 C 300.058594 142.269531 315.722656 140.695313 325.789063 142.945313 C 394.148438 158.226563 417.953125 183.109375 429.207031 250.917969 C 430.851563 260.804688 427.585938 276.191406 444.386719 273.640625 C 456.835938 271.746094 452.339844 258.554688 453.382813 250.851563 C 453.929688 185.75 398.144531 126.492188 329.84375 118.289063 "/>
<path style=" stroke:none;fill-rule:nonzero;fill:rgb(100%,100%,100%);fill-opacity:1;" d="M 336.121094 171.527344 C 329.015625 171.703125 322.039063 172.472656 319.425781 180.066406 C 315.503906 191.414063 323.757813 194.121094 332.15625 195.472656 C 360.199219 199.972656 374.957031 216.511719 377.757813 244.472656 C 378.515625 252.066406 383.332031 258.214844 390.664063 257.347656 C 400.824219 256.136719 401.742188 247.09375 401.429688 238.507813 C 401.933594 207.085938 366.421875 170.773438 336.121094 171.527344 "/>
</g>
</svg>
